<svg xmlns="http://www.w3.org/2000/svg" width="120" height="25" fill="none"><g fill="#fff" clip-path="url(#a)"><path d="M120 19v3h-3c-2-1-4-2-4-5v-6h-2V8h2V5h4v3h3v2h-3v7l1 2h2ZM97 15a7 7 0 0 1 6-7h1c3 0 6 2 6 6v1h-9c0 3 1 4 3 4s2-1 3-2h3c0 3-3 5-6 5-4 0-7-3-7-7Zm10-2-3-3c-2 0-3 1-3 3h6ZM82 15a7 7 0 0 1 6-7h1c3 0 6 2 6 6v1h-9c0 3 1 4 3 4s2-1 3-2h3c0 3-3 5-6 5-4 0-7-3-7-7Zm10-2-3-3c-2 0-3 1-3 3h6ZM61 8h4l2 9 3-9h3l2 9 3-9h3l-4 13h-4l-2-8-2 8h-4L61 8ZM48 17h4l2 2 2-1c0-1 0-2-2-2-4-1-5-2-5-4 0-3 2-4 5-4s5 1 6 4h-4a2 2 0 0 0-2-2l-2 1c0 1 1 2 3 2 3 0 5 1 5 4s-2 5-6 5c-3 0-5-2-6-5ZM34 8h3v2a5 5 0 0 1 5-2c2 0 4 1 4 5v8h-3v-8c0-1-1-2-3-2a3 3 0 0 0-3 3v7h-3V8ZM27 5a2 2 0 1 1 1 1 2 2 0 0 1-1-1Zm0 3h3v13h-3V8ZM13 3h11v3h-7v5h6v3h-6v7h-4V3ZM5 9l-1 3c2 1 1 2 1 3v5l1 1h2v3H6c-3 0-4-1-4-4v-6a1 1 0 0 0-1-1H0v-2h1a1 1 0 0 0 1-1V4c0-3 1-4 4-4h2v3H6L5 5v4Z"/></g><defs><clipPath id="a"><path fill="#fff" d="M0 0h120v24H0z"/></clipPath></defs></svg>