<svg xmlns="http://www.w3.org/2000/svg" width="143" height="33" fill="none"><path fill="#4A5D69" d="M41 10h4v15h-4V10Zm5 9c0-3 2-6 6-6 3 0 5 3 5 6 0 4-2 6-5 6-4 0-6-2-6-6Zm8 0c0-2-1-3-2-3-2 0-2 1-2 3s0 3 2 3c1 0 2-1 2-3Zm5 7h3a2 2 0 0 0 2 1c2 0 2-1 2-2v-2a3 3 0 0 1-3 2c-3 0-4-2-4-6 0-3 1-5 4-5a3 3 0 0 1 3 2v-2h4v11c0 2-2 4-6 4-3 0-5-1-5-3Zm7-7c0-2-1-3-2-3s-2 1-2 3 1 3 2 3 2-1 2-3Zm5 0c0-3 3-6 6-6s6 3 6 6c0 4-3 6-6 6-4 0-6-2-6-6Zm8 0c0-2-1-3-2-3s-2 1-2 3 1 3 2 3 2-1 2-3Zm5-8a2 2 0 0 1 1-2 2 2 0 0 1 3 1 2 2 0 0 1-1 2l-1 1a2 2 0 0 1-2-1v-1Zm0 3h4v11h-4V14Zm17 5c0 4-2 6-5 6a3 3 0 0 1-3-2v5h-4V14h4v2a3 3 0 0 1 3-3c3 0 5 3 5 6Zm-4 0c0-2-1-3-2-3s-2 1-2 3 1 3 2 3 2-1 2-3Zm10-6c3 0 5 2 5 4h-3l-2-1-2 1 2 1h2l3 3c0 3-2 4-5 4s-5-1-5-4h3l2 2 2-1-2-1-2-1c-2 0-3-1-3-3s2-4 5-4Zm17 12h-3v-2a3 3 0 0 1-4 2 4 4 0 0 1-3-3v-8h3v6l2 2a2 2 0 0 0 2-1v-7h3v11Zm2-11h4v2a3 3 0 0 1 3-3 3 3 0 0 1 3 3 3 3 0 0 1 3-3 3 3 0 0 1 4 3v9h-4v-7l-1-2a2 2 0 0 0-2 1v8h-3v-7l-2-2a2 2 0 0 0-1 2v7h-4V14ZM34 11l-2-6-5-4a12 12 0 0 0-13 3H0v29h30V19a11 11 0 0 0 4-8Zm-6 0-1 3-2 2a6 6 0 0 1-6-1 5 5 0 0 1-1-6l2-2a6 6 0 0 1 7 0l1 4Zm-4 16H6V9h5v2c0 3 2 6 4 8a12 12 0 0 0 9 3v5Z"/><path fill="#4A5D69" d="M29 31h1v1h-1z"/></svg>