<svg xmlns="http://www.w3.org/2000/svg" width="140" height="32" fill="none"><path fill="#4A5D69" d="m30 11 1 1v8h4l1 1-1 1h-5l-1-1v-9l1-1ZM40 15c0-3 2-4 5-4 2 0 4 1 4 4v3c0 3-2 4-4 4-3 0-5-1-5-4v-3Zm7 0-2-2c-2 0-3 1-3 2v3c0 2 1 2 3 2l2-2v-3ZM62 15l1 1v2a4 4 0 0 1-1 3l-4 1c-2 0-4-2-4-4v-4c0-2 2-4 4-4 3 0 4 1 5 3h-1v1l-1-1-1-1h-2l-2 2v4l2 2c2 0 3-1 3-2v-1h-3v-1l1-1h3ZM68 15c0-3 2-4 5-4 2 0 4 1 4 4v3c0 3-2 4-4 4-3 0-5-1-5-4v-3Zm7 0-2-2c-2 0-3 1-3 2v3c0 2 1 2 3 2l2-2v-3ZM82 11h1v11h-1V11ZM93 11l3 1a3 3 0 0 1 0 5l-3 1h-3v4h-1V11h4Zm0 6a2 2 0 0 0 2-1 2 2 0 0 0 1-2 2 2 0 0 0-1-1 2 2 0 0 0-2-1h-3v5h3ZM106 11l3 1 2 1v1h-1l-2-2h-2l-3 2 1 1 1 1h4l2 1v2c0 2-2 3-5 3l-2-1a4 4 0 0 1-2-2h1l1 1 2 1c3 0 4-1 4-2l-1-1-1-1h-4l-1-1-1-1v-1c0-2 2-3 4-3ZM116 18l1 2 2 1 3-1 1-2v-7h1v7c0 3-2 4-4 4-3 0-5-1-5-4v-7h1v7ZM140 11v11h-1v-9l-1 2-3 4h-1l-2-4-1-2v9h-1V11h1l4 7 4-7h1ZM10 20v9a1 1 0 0 1-2 0v-9a2 2 0 0 0 2 0Zm11-2h-1v3a1 1 0 0 0 2 0v-2a1 1 0 0 0 0-1 1 1 0 0 0-1 0ZM5 23H4v9a1 1 0 0 0 2 0v-9H5Zm12-8a1 1 0 0 0-1 1v7a1 1 0 0 0 2 0v-7a1 1 0 0 0-1-1Zm-4 3-1-1v9a1 1 0 0 0 2 0v-9l-1 1ZM2 24V0H0v25h2v-1Zm3-2H4V3h2v19H5Zm4-2-1-1V6a1 1 0 0 1 1-1l1 1v13l-1 1Zm4-3-1-1V9a1 1 0 0 1 0-1 1 1 0 0 1 1 0h1v8a1 1 0 0 1-1 1Zm4-3h-1v-3h2v3h-1Z"/><path fill="#4A5D69" d="M5 30h1v1H5z"/></svg>