<svg xmlns="http://www.w3.org/2000/svg" width="134" height="31" fill="none"><path fill="#4A5D69" d="M39 9h3v13h-3V9Zm5 8c0-3 2-5 5-5s5 2 5 5-2 5-5 5-5-1-5-5Zm7 0c0-2-1-3-2-3s-2 1-2 3 1 3 2 3 2-1 2-3Zm5 6h3l1 1h1l2-2v-2h-1l-1 2h-2c-2 0-4-2-4-5s2-5 4-5l2 1 2 1v-2h3v10c0 3-2 4-5 4s-5-1-5-3Zm7-6-2-2c-2 0-2 1-2 2 0 2 0 3 2 3 1 0 2-1 2-3Zm4 0c0-3 2-5 5-5 4 0 6 2 6 5s-2 5-6 5c-3 0-5-1-5-5Zm7 0c0-2 0-3-2-3l-1 3c0 2 0 3 2 3l1-3Zm5-7V9l1-1a2 2 0 0 1 2 0 2 2 0 0 1 0 2v1h-1a2 2 0 0 1-1 0 2 2 0 0 1-1-1Zm0 2h3v10h-3V12Zm16 5c0 3-2 5-4 5h-2l-2-2v5h-3V12h3v2l2-2h2c2 0 4 2 4 5Zm-4 0c0-1 0-2-2-2l-2 2c0 2 1 3 2 3 2 0 2-1 2-3Zm9-5c3 0 5 1 5 3h-3l-2-1-1 1 1 1h2c2 1 3 1 3 3s-2 3-4 3c-3 0-5-1-5-3h3l2 1 1-1h-1l-2-1c-2 0-3-1-3-3s2-3 4-3Zm17 10h-4v-2l-1 2h-2a4 4 0 0 1-2-1 3 3 0 0 1-2-2v-7h4v6l2 2a2 2 0 0 0 1-1 2 2 0 0 0 0-1v-6h4v10Zm1-10h3v2h1l1-1 2-1h1l1 2 2-2h2a3 3 0 0 1 2 1 3 3 0 0 1 1 2v7h-3v-6l-2-1a2 2 0 0 0-1 0 1 1 0 0 0 0 1v6h-4v-6l-1-1a2 2 0 0 0-1 0 1 1 0 0 0 0 1v6h-4V12ZM29 9l-2-3a15 15 0 0 0-11-6A15 15 0 0 0 4 5a16 16 0 0 0-4 12 16 16 0 0 0 6 11 14 14 0 0 0 9 3c4 0 8-2 11-5a16 16 0 0 0 3-17ZM15 3l5 1-1 1-4 2-2 3-1 2-2 1-3 2-2 4-1 2A13 13 0 0 1 5 9l4-4 6-2ZM6 24v-1l2-4 1-2 2-1 4-1 1-4 1-2 2-1 4-2 2 3-2 1-3 2-2 4-1 2-2 1-4 2-2 4v1l-3-2Zm9 4-3-1v-2l1-2 2-1 4-2 2-3 1-3 2-1 3-1a13 13 0 0 1-3 11 12 12 0 0 1-9 5Z"/><path fill="#4A5D69" d="M18 29h1v1h-1z"/></svg>